<svg xmlns="http://www.w3.org/2000/svg" version="1.1" xmlns:xlink="http://www.w3.org/1999/xlink" xmlns:svgjs="http://svgjs.dev/svgjs" width="1440" height="560" preserveAspectRatio="none" viewBox="0 0 1440 560"><g mask="url(&quot;#SvgjsMask1002&quot;)" fill="none"><rect width="1440" height="560" x="0" y="0" fill="#0e2a47"></rect><path d="M-69.43 382.81L-69.43 382.81" stroke="rgba(19, 46, 101, 1)" stroke-width="1.5"></path><path d="M-69.43 382.81L75.32 409.48" stroke="rgba(19, 46, 101, 1)" stroke-width="1.5"></path><path d="M-69.43 382.81L-100.39 556.81" stroke="rgba(19, 46, 101, 1)" stroke-width="1.5"></path><path d="M-69.43 382.81L55.37 552.27" stroke="rgba(19, 46, 101, 1)" stroke-width="1.5"></path><path d="M-100.39 556.81L-100.39 556.81" stroke="rgba(19, 46, 101, 1)" stroke-width="1.5"></path><path d="M-100.39 556.81L-65.81 637.7" stroke="rgba(19, 46, 101, 1)" stroke-width="1.5"></path><path d="M-100.39 556.81L55.37 552.27" stroke="rgba(19, 46, 101, 1)" stroke-width="1.5"></path><path d="M-100.39 556.81L65.28 707.5" stroke="rgba(19, 46, 101, 1)" stroke-width="1.5"></path><path d="M-100.39 556.81L75.32 409.48" stroke="rgba(19, 46, 101, 1)" stroke-width="1.5"></path><path d="M-100.39 556.81L209.08 502.94" stroke="rgba(19, 46, 101, 1)" stroke-width="1.5"></path><path d="M-65.81 637.7L-65.81 637.7" stroke="rgba(19, 46, 101, 1)" stroke-width="1.5"></path><path d="M-65.81 637.7L55.37 552.27" stroke="rgba(19, 46, 101, 1)" stroke-width="1.5"></path><path d="M-65.81 637.7L65.28 707.5" stroke="rgba(19, 46, 101, 1)" stroke-width="1.5"></path><path d="M75.32 409.48L75.32 409.48" stroke="rgba(19, 46, 101, 1)" stroke-width="1.5"></path><path d="M75.32 409.48L55.37 552.27" stroke="rgba(19, 46, 101, 1)" stroke-width="1.5"></path><path d="M75.32 409.48L209.08 502.94" stroke="rgba(19, 46, 101, 1)" stroke-width="1.5"></path><path d="M55.37 552.27L55.37 552.27" stroke="rgba(19, 46, 101, 1)" stroke-width="1.5"></path><path d="M65.28 707.5L65.28 707.5" stroke="rgba(19, 46, 101, 1)" stroke-width="1.5"></path><path d="M65.28 707.5L55.37 552.27" stroke="rgba(19, 46, 101, 1)" stroke-width="1.5"></path><path d="M227.37 342.68L227.37 342.68" stroke="rgba(19, 46, 101, 1)" stroke-width="1.5"></path><path d="M227.37 342.68L209.08 502.94" stroke="rgba(19, 46, 101, 1)" stroke-width="1.5"></path><path d="M209.08 502.94L209.08 502.94" stroke="rgba(19, 46, 101, 1)" stroke-width="1.5"></path><path d="M209.08 502.94L338.78 544.79" stroke="rgba(19, 46, 101, 1)" stroke-width="1.5"></path><path d="M209.08 502.94L243.65 645.7" stroke="rgba(19, 46, 101, 1)" stroke-width="1.5"></path><path d="M209.08 502.94L55.37 552.27" stroke="rgba(19, 46, 101, 1)" stroke-width="1.5"></path><path d="M243.65 645.7L243.65 645.7" stroke="rgba(19, 46, 101, 1)" stroke-width="1.5"></path><path d="M243.65 645.7L347.74 667.76" stroke="rgba(19, 46, 101, 1)" stroke-width="1.5"></path><path d="M243.65 645.7L338.78 544.79" stroke="rgba(19, 46, 101, 1)" stroke-width="1.5"></path><path d="M243.65 645.7L65.28 707.5" stroke="rgba(19, 46, 101, 1)" stroke-width="1.5"></path><path d="M243.65 645.7L55.37 552.27" stroke="rgba(19, 46, 101, 1)" stroke-width="1.5"></path><path d="M243.65 645.7L75.32 409.48" stroke="rgba(19, 46, 101, 1)" stroke-width="1.5"></path><path d="M406.92 351.69L406.92 351.69" stroke="rgba(19, 46, 101, 1)" stroke-width="1.5"></path><path d="M406.92 351.69L513.72 368.12" stroke="rgba(19, 46, 101, 1)" stroke-width="1.5"></path><path d="M406.92 351.69L227.37 342.68" stroke="rgba(19, 46, 101, 1)" stroke-width="1.5"></path><path d="M338.78 544.79L338.78 544.79" stroke="rgba(19, 46, 101, 1)" stroke-width="1.5"></path><path d="M338.78 544.79L347.74 667.76" stroke="rgba(19, 46, 101, 1)" stroke-width="1.5"></path><path d="M338.78 544.79L406.92 351.69" stroke="rgba(19, 46, 101, 1)" stroke-width="1.5"></path><path d="M338.78 544.79L544.15 511.79" stroke="rgba(19, 46, 101, 1)" stroke-width="1.5"></path><path d="M338.78 544.79L227.37 342.68" stroke="rgba(19, 46, 101, 1)" stroke-width="1.5"></path><path d="M347.74 667.76L347.74 667.76" stroke="rgba(19, 46, 101, 1)" stroke-width="1.5"></path><path d="M513.72 368.12L513.72 368.12" stroke="rgba(19, 46, 101, 1)" stroke-width="1.5"></path><path d="M513.72 368.12L639.45 352.42" stroke="rgba(19, 46, 101, 1)" stroke-width="1.5"></path><path d="M513.72 368.12L544.15 511.79" stroke="rgba(19, 46, 101, 1)" stroke-width="1.5"></path><path d="M544.15 511.79L544.15 511.79" stroke="rgba(19, 46, 101, 1)" stroke-width="1.5"></path><path d="M544.15 511.79L709.83 492.11" stroke="rgba(19, 46, 101, 1)" stroke-width="1.5"></path><path d="M544.15 511.79L535.81 691.9" stroke="rgba(19, 46, 101, 1)" stroke-width="1.5"></path><path d="M544.15 511.79L639.45 352.42" stroke="rgba(19, 46, 101, 1)" stroke-width="1.5"></path><path d="M535.81 691.9L535.81 691.9" stroke="rgba(19, 46, 101, 1)" stroke-width="1.5"></path><path d="M535.81 691.9L688.18 659.78" stroke="rgba(19, 46, 101, 1)" stroke-width="1.5"></path><path d="M535.81 691.9L347.74 667.76" stroke="rgba(19, 46, 101, 1)" stroke-width="1.5"></path><path d="M639.45 352.42L639.45 352.42" stroke="rgba(19, 46, 101, 1)" stroke-width="1.5"></path><path d="M639.45 352.42L709.83 492.11" stroke="rgba(19, 46, 101, 1)" stroke-width="1.5"></path><path d="M639.45 352.42L799.03 358.92" stroke="rgba(19, 46, 101, 1)" stroke-width="1.5"></path><path d="M639.45 352.42L806.35 252.85" stroke="rgba(19, 46, 101, 1)" stroke-width="1.5"></path><path d="M639.45 352.42L406.92 351.69" stroke="rgba(19, 46, 101, 1)" stroke-width="1.5"></path><path d="M709.83 492.11L709.83 492.11" stroke="rgba(19, 46, 101, 1)" stroke-width="1.5"></path><path d="M709.83 492.11L799.03 358.92" stroke="rgba(19, 46, 101, 1)" stroke-width="1.5"></path><path d="M709.83 492.11L857.78 559.08" stroke="rgba(19, 46, 101, 1)" stroke-width="1.5"></path><path d="M688.18 659.78L688.18 659.78" stroke="rgba(19, 46, 101, 1)" stroke-width="1.5"></path><path d="M688.18 659.78L827 696.36" stroke="rgba(19, 46, 101, 1)" stroke-width="1.5"></path><path d="M688.18 659.78L709.83 492.11" stroke="rgba(19, 46, 101, 1)" stroke-width="1.5"></path><path d="M688.18 659.78L857.78 559.08" stroke="rgba(19, 46, 101, 1)" stroke-width="1.5"></path><path d="M688.18 659.78L544.15 511.79" stroke="rgba(19, 46, 101, 1)" stroke-width="1.5"></path><path d="M688.18 659.78L939.41 689.61" stroke="rgba(19, 46, 101, 1)" stroke-width="1.5"></path><path d="M806.35 252.85L806.35 252.85" stroke="rgba(19, 46, 101, 1)" stroke-width="1.5"></path><path d="M806.35 252.85L799.03 358.92" stroke="rgba(19, 46, 101, 1)" stroke-width="1.5"></path><path d="M799.03 358.92L799.03 358.92" stroke="rgba(19, 46, 101, 1)" stroke-width="1.5"></path><path d="M799.03 358.92L944.78 338.85" stroke="rgba(19, 46, 101, 1)" stroke-width="1.5"></path><path d="M857.78 559.08L857.78 559.08" stroke="rgba(19, 46, 101, 1)" stroke-width="1.5"></path><path d="M857.78 559.08L827 696.36" stroke="rgba(19, 46, 101, 1)" stroke-width="1.5"></path><path d="M857.78 559.08L939.41 689.61" stroke="rgba(19, 46, 101, 1)" stroke-width="1.5"></path><path d="M827 696.36L827 696.36" stroke="rgba(19, 46, 101, 1)" stroke-width="1.5"></path><path d="M827 696.36L939.41 689.61" stroke="rgba(19, 46, 101, 1)" stroke-width="1.5"></path><path d="M827 696.36L709.83 492.11" stroke="rgba(19, 46, 101, 1)" stroke-width="1.5"></path><path d="M827 696.36L535.81 691.9" stroke="rgba(19, 46, 101, 1)" stroke-width="1.5"></path><path d="M827 696.36L1147.29 661.25" stroke="rgba(19, 46, 101, 1)" stroke-width="1.5"></path><path d="M994.9 -71.67L994.9 -71.67" stroke="rgba(19, 46, 101, 1)" stroke-width="1.5"></path><path d="M994.9 -71.67L1142.76 -78.8" stroke="rgba(19, 46, 101, 1)" stroke-width="1.5"></path><path d="M994.9 -71.67L1004.68 95.63" stroke="rgba(19, 46, 101, 1)" stroke-width="1.5"></path><path d="M1004.68 95.63L1004.68 95.63" stroke="rgba(19, 46, 101, 1)" stroke-width="1.5"></path><path d="M1004.68 95.63L1126.27 78.68" stroke="rgba(19, 46, 101, 1)" stroke-width="1.5"></path><path d="M1004.68 95.63L975.49 217.79" stroke="rgba(19, 46, 101, 1)" stroke-width="1.5"></path><path d="M1004.68 95.63L1134.93 260.61" stroke="rgba(19, 46, 101, 1)" stroke-width="1.5"></path><path d="M1004.68 95.63L1142.76 -78.8" stroke="rgba(19, 46, 101, 1)" stroke-width="1.5"></path><path d="M975.49 217.79L975.49 217.79" stroke="rgba(19, 46, 101, 1)" stroke-width="1.5"></path><path d="M975.49 217.79L944.78 338.85" stroke="rgba(19, 46, 101, 1)" stroke-width="1.5"></path><path d="M944.78 338.85L944.78 338.85" stroke="rgba(19, 46, 101, 1)" stroke-width="1.5"></path><path d="M939.41 689.61L939.41 689.61" stroke="rgba(19, 46, 101, 1)" stroke-width="1.5"></path><path d="M939.41 689.61L1147.29 661.25" stroke="rgba(19, 46, 101, 1)" stroke-width="1.5"></path><path d="M1142.76 -78.8L1142.76 -78.8" stroke="rgba(19, 46, 101, 1)" stroke-width="1.5"></path><path d="M1142.76 -78.8L1251.88 -78.5" stroke="rgba(19, 46, 101, 1)" stroke-width="1.5"></path><path d="M1142.76 -78.8L1126.27 78.68" stroke="rgba(19, 46, 101, 1)" stroke-width="1.5"></path><path d="M1126.27 78.68L1126.27 78.68" stroke="rgba(19, 46, 101, 1)" stroke-width="1.5"></path><path d="M1126.27 78.68L1251.71 96.38" stroke="rgba(19, 46, 101, 1)" stroke-width="1.5"></path><path d="M1134.93 260.61L1134.93 260.61" stroke="rgba(19, 46, 101, 1)" stroke-width="1.5"></path><path d="M1134.93 260.61L1117.21 405.95" stroke="rgba(19, 46, 101, 1)" stroke-width="1.5"></path><path d="M1134.93 260.61L975.49 217.79" stroke="rgba(19, 46, 101, 1)" stroke-width="1.5"></path><path d="M1117.21 405.95L1117.21 405.95" stroke="rgba(19, 46, 101, 1)" stroke-width="1.5"></path><path d="M1117.21 405.95L1158.9 538.03" stroke="rgba(19, 46, 101, 1)" stroke-width="1.5"></path><path d="M1117.21 405.95L1260.22 400.27" stroke="rgba(19, 46, 101, 1)" stroke-width="1.5"></path><path d="M1158.9 538.03L1158.9 538.03" stroke="rgba(19, 46, 101, 1)" stroke-width="1.5"></path><path d="M1158.9 538.03L1147.29 661.25" stroke="rgba(19, 46, 101, 1)" stroke-width="1.5"></path><path d="M1158.9 538.03L1260.22 400.27" stroke="rgba(19, 46, 101, 1)" stroke-width="1.5"></path><path d="M1158.9 538.03L1306.08 673.02" stroke="rgba(19, 46, 101, 1)" stroke-width="1.5"></path><path d="M1158.9 538.03L1394.65 491.21" stroke="rgba(19, 46, 101, 1)" stroke-width="1.5"></path><path d="M1147.29 661.25L1147.29 661.25" stroke="rgba(19, 46, 101, 1)" stroke-width="1.5"></path><path d="M1147.29 661.25L1306.08 673.02" stroke="rgba(19, 46, 101, 1)" stroke-width="1.5"></path><path d="M1251.88 -78.5L1251.88 -78.5" stroke="rgba(19, 46, 101, 1)" stroke-width="1.5"></path><path d="M1251.88 -78.5L1400.01 -81.79" stroke="rgba(19, 46, 101, 1)" stroke-width="1.5"></path><path d="M1251.88 -78.5L1251.71 96.38" stroke="rgba(19, 46, 101, 1)" stroke-width="1.5"></path><path d="M1251.88 -78.5L1126.27 78.68" stroke="rgba(19, 46, 101, 1)" stroke-width="1.5"></path><path d="M1251.71 96.38L1251.71 96.38" stroke="rgba(19, 46, 101, 1)" stroke-width="1.5"></path><path d="M1251.71 96.38L1405.31 90.81" stroke="rgba(19, 46, 101, 1)" stroke-width="1.5"></path><path d="M1260.22 400.27L1260.22 400.27" stroke="rgba(19, 46, 101, 1)" stroke-width="1.5"></path><path d="M1260.22 400.27L1394.65 491.21" stroke="rgba(19, 46, 101, 1)" stroke-width="1.5"></path><path d="M1260.22 400.27L1423.42 385.95" stroke="rgba(19, 46, 101, 1)" stroke-width="1.5"></path><path d="M1260.22 400.27L1134.93 260.61" stroke="rgba(19, 46, 101, 1)" stroke-width="1.5"></path><path d="M1260.22 400.27L1441.36 193.06" stroke="rgba(19, 46, 101, 1)" stroke-width="1.5"></path><path d="M1306.08 673.02L1306.08 673.02" stroke="rgba(19, 46, 101, 1)" stroke-width="1.5"></path><path d="M1306.08 673.02L1418.15 694.85" stroke="rgba(19, 46, 101, 1)" stroke-width="1.5"></path><path d="M1400.01 -81.79L1400.01 -81.79" stroke="rgba(19, 46, 101, 1)" stroke-width="1.5"></path><path d="M1400.01 -81.79L1405.31 90.81" stroke="rgba(19, 46, 101, 1)" stroke-width="1.5"></path><path d="M1400.01 -81.79L1606.23 -87.92" stroke="rgba(19, 46, 101, 1)" stroke-width="1.5"></path><path d="M1400.01 -81.79L1251.71 96.38" stroke="rgba(19, 46, 101, 1)" stroke-width="1.5"></path><path d="M1400.01 -81.79L1578.53 85.32" stroke="rgba(19, 46, 101, 1)" stroke-width="1.5"></path><path d="M1405.31 90.81L1405.31 90.81" stroke="rgba(19, 46, 101, 1)" stroke-width="1.5"></path><path d="M1405.31 90.81L1441.36 193.06" stroke="rgba(19, 46, 101, 1)" stroke-width="1.5"></path><path d="M1441.36 193.06L1441.36 193.06" stroke="rgba(19, 46, 101, 1)" stroke-width="1.5"></path><path d="M1441.36 193.06L1548.64 217.1" stroke="rgba(19, 46, 101, 1)" stroke-width="1.5"></path><path d="M1441.36 193.06L1578.53 85.32" stroke="rgba(19, 46, 101, 1)" stroke-width="1.5"></path><path d="M1441.36 193.06L1423.42 385.95" stroke="rgba(19, 46, 101, 1)" stroke-width="1.5"></path><path d="M1441.36 193.06L1251.71 96.38" stroke="rgba(19, 46, 101, 1)" stroke-width="1.5"></path><path d="M1423.42 385.95L1423.42 385.95" stroke="rgba(19, 46, 101, 1)" stroke-width="1.5"></path><path d="M1423.42 385.95L1394.65 491.21" stroke="rgba(19, 46, 101, 1)" stroke-width="1.5"></path><path d="M1423.42 385.95L1548.64 217.1" stroke="rgba(19, 46, 101, 1)" stroke-width="1.5"></path><path d="M1423.42 385.95L1563.19 555.11" stroke="rgba(19, 46, 101, 1)" stroke-width="1.5"></path><path d="M1423.42 385.95L1405.31 90.81" stroke="rgba(19, 46, 101, 1)" stroke-width="1.5"></path><path d="M1394.65 491.21L1394.65 491.21" stroke="rgba(19, 46, 101, 1)" stroke-width="1.5"></path><path d="M1394.65 491.21L1563.19 555.11" stroke="rgba(19, 46, 101, 1)" stroke-width="1.5"></path><path d="M1418.15 694.85L1418.15 694.85" stroke="rgba(19, 46, 101, 1)" stroke-width="1.5"></path><path d="M1418.15 694.85L1563.19 555.11" stroke="rgba(19, 46, 101, 1)" stroke-width="1.5"></path><path d="M1418.15 694.85L1394.65 491.21" stroke="rgba(19, 46, 101, 1)" stroke-width="1.5"></path><path d="M1418.15 694.85L1147.29 661.25" stroke="rgba(19, 46, 101, 1)" stroke-width="1.5"></path><path d="M1606.23 -87.92L1606.23 -87.92" stroke="rgba(19, 46, 101, 1)" stroke-width="1.5"></path><path d="M1606.23 -87.92L1578.53 85.32" stroke="rgba(19, 46, 101, 1)" stroke-width="1.5"></path><path d="M1578.53 85.32L1578.53 85.32" stroke="rgba(19, 46, 101, 1)" stroke-width="1.5"></path><path d="M1578.53 85.32L1548.64 217.1" stroke="rgba(19, 46, 101, 1)" stroke-width="1.5"></path><path d="M1578.53 85.32L1405.31 90.81" stroke="rgba(19, 46, 101, 1)" stroke-width="1.5"></path><path d="M1548.64 217.1L1548.64 217.1" stroke="rgba(19, 46, 101, 1)" stroke-width="1.5"></path><path d="M1548.64 217.1L1405.31 90.81" stroke="rgba(19, 46, 101, 1)" stroke-width="1.5"></path><path d="M1563.19 555.11L1563.19 555.11" stroke="rgba(19, 46, 101, 1)" stroke-width="1.5"></path><path d="M1563.19 555.11L1306.08 673.02" stroke="rgba(19, 46, 101, 1)" stroke-width="1.5"></path><circle r="5" cx="-69.43" cy="382.81" fill="rgba(19, 46, 101, 1)"></circle><circle r="5" cx="-100.39" cy="556.81" fill="rgba(19, 46, 101, 1)"></circle><circle r="5" cx="-65.81" cy="637.7" fill="rgba(19, 46, 101, 1)"></circle><circle r="5" cx="75.32" cy="409.48" fill="rgba(19, 46, 101, 1)"></circle><circle r="5" cx="55.37" cy="552.27" fill="rgba(19, 46, 101, 1)"></circle><circle r="5" cx="65.28" cy="707.5" fill="rgba(19, 46, 101, 1)"></circle><circle r="5" cx="227.37" cy="342.68" fill="rgba(19, 46, 101, 1)"></circle><circle r="5" cx="209.08" cy="502.94" fill="rgba(19, 46, 101, 1)"></circle><circle r="5" cx="243.65" cy="645.7" fill="rgba(19, 46, 101, 1)"></circle><circle r="5" cx="406.92" cy="351.69" fill="rgba(19, 46, 101, 1)"></circle><circle r="5" cx="338.78" cy="544.79" fill="rgba(19, 46, 101, 1)"></circle><circle r="5" cx="347.74" cy="667.76" fill="rgba(19, 46, 101, 1)"></circle><circle r="5" cx="513.72" cy="368.12" fill="rgba(19, 46, 101, 1)"></circle><circle r="5" cx="544.15" cy="511.79" fill="rgba(19, 46, 101, 1)"></circle><circle r="5" cx="535.81" cy="691.9" fill="rgba(19, 46, 101, 1)"></circle><circle r="5" cx="639.45" cy="352.42" fill="rgba(19, 46, 101, 1)"></circle><circle r="5" cx="709.83" cy="492.11" fill="rgba(19, 46, 101, 1)"></circle><circle r="5" cx="688.18" cy="659.78" fill="rgba(19, 46, 101, 1)"></circle><circle r="5" cx="806.35" cy="252.85" fill="rgba(19, 46, 101, 1)"></circle><circle r="5" cx="799.03" cy="358.92" fill="rgba(19, 46, 101, 1)"></circle><circle r="5" cx="857.78" cy="559.08" fill="rgba(19, 46, 101, 1)"></circle><circle r="5" cx="827" cy="696.36" fill="rgba(19, 46, 101, 1)"></circle><circle r="5" cx="994.9" cy="-71.67" fill="rgba(19, 46, 101, 1)"></circle><circle r="5" cx="1004.68" cy="95.63" fill="rgba(19, 46, 101, 1)"></circle><circle r="5" cx="975.49" cy="217.79" fill="rgba(19, 46, 101, 1)"></circle><circle r="5" cx="944.78" cy="338.85" fill="rgba(19, 46, 101, 1)"></circle><circle r="5" cx="939.41" cy="689.61" fill="rgba(19, 46, 101, 1)"></circle><circle r="5" cx="1142.76" cy="-78.8" fill="rgba(19, 46, 101, 1)"></circle><circle r="5" cx="1126.27" cy="78.68" fill="rgba(19, 46, 101, 1)"></circle><circle r="5" cx="1134.93" cy="260.61" fill="rgba(19, 46, 101, 1)"></circle><circle r="5" cx="1117.21" cy="405.95" fill="rgba(19, 46, 101, 1)"></circle><circle r="5" cx="1158.9" cy="538.03" fill="rgba(19, 46, 101, 1)"></circle><circle r="5" cx="1147.29" cy="661.25" fill="rgba(19, 46, 101, 1)"></circle><circle r="5" cx="1251.88" cy="-78.5" fill="rgba(19, 46, 101, 1)"></circle><circle r="5" cx="1251.71" cy="96.38" fill="rgba(19, 46, 101, 1)"></circle><circle r="5" cx="1260.22" cy="400.27" fill="rgba(19, 46, 101, 1)"></circle><circle r="5" cx="1306.08" cy="673.02" fill="rgba(19, 46, 101, 1)"></circle><circle r="5" cx="1400.01" cy="-81.79" fill="rgba(19, 46, 101, 1)"></circle><circle r="5" cx="1405.31" cy="90.81" fill="rgba(19, 46, 101, 1)"></circle><circle r="5" cx="1441.36" cy="193.06" fill="rgba(19, 46, 101, 1)"></circle><circle r="5" cx="1423.42" cy="385.95" fill="rgba(19, 46, 101, 1)"></circle><circle r="5" cx="1394.65" cy="491.21" fill="rgba(19, 46, 101, 1)"></circle><circle r="5" cx="1418.15" cy="694.85" fill="rgba(19, 46, 101, 1)"></circle><circle r="5" cx="1606.23" cy="-87.92" fill="rgba(19, 46, 101, 1)"></circle><circle r="5" cx="1578.53" cy="85.32" fill="rgba(19, 46, 101, 1)"></circle><circle r="5" cx="1548.64" cy="217.1" fill="rgba(19, 46, 101, 1)"></circle><circle r="5" cx="1563.19" cy="555.11" fill="rgba(19, 46, 101, 1)"></circle><path d="M-59.91 550.03L-59.91 550.03" stroke="hsl(228.5, 77.2%, 51.5%)" stroke-width="1.5"></path><path d="M-59.91 550.03L74.09 558.18" stroke="hsl(228.5, 77.2%, 51.5%)" stroke-width="1.5"></path><path d="M536.17 519.99L536.17 519.99" stroke="hsl(228.5, 77.2%, 51.5%)" stroke-width="1.5"></path><path d="M536.17 519.99L696.82 501.26" stroke="hsl(228.5, 77.2%, 51.5%)" stroke-width="1.5"></path><path d="M536.17 519.99L640.4 395.15" stroke="hsl(228.5, 77.2%, 51.5%)" stroke-width="1.5"></path><path d="M536.17 519.99L371.5 526.1" stroke="hsl(228.5, 77.2%, 51.5%)" stroke-width="1.5"></path><path d="M536.17 519.99L547.74 689.77" stroke="hsl(228.5, 77.2%, 51.5%)" stroke-width="1.5"></path><path d="M536.17 519.99L684.26 689.88" stroke="hsl(228.5, 77.2%, 51.5%)" stroke-width="1.5"></path><path d="M536.17 519.99L339.97 660.14" stroke="hsl(228.5, 77.2%, 51.5%)" stroke-width="1.5"></path><path d="M684.26 689.88L684.26 689.88" stroke="hsl(228.5, 77.2%, 51.5%)" stroke-width="1.5"></path><path d="M684.26 689.88L547.74 689.77" stroke="hsl(228.5, 77.2%, 51.5%)" stroke-width="1.5"></path><path d="M805.25 493.57L805.25 493.57" stroke="hsl(228.5, 77.2%, 51.5%)" stroke-width="1.5"></path><path d="M805.25 493.57L696.82 501.26" stroke="hsl(228.5, 77.2%, 51.5%)" stroke-width="1.5"></path><path d="M805.25 493.57L840.04 378.71" stroke="hsl(228.5, 77.2%, 51.5%)" stroke-width="1.5"></path><path d="M805.25 493.57L946.49 530.56" stroke="hsl(228.5, 77.2%, 51.5%)" stroke-width="1.5"></path><path d="M805.25 493.57L965.13 398.88" stroke="hsl(228.5, 77.2%, 51.5%)" stroke-width="1.5"></path><path d="M951.91 683.06L951.91 683.06" stroke="hsl(228.5, 77.2%, 51.5%)" stroke-width="1.5"></path><path d="M951.91 683.06L823.86 692.61" stroke="hsl(228.5, 77.2%, 51.5%)" stroke-width="1.5"></path><path d="M951.91 683.06L946.49 530.56" stroke="hsl(228.5, 77.2%, 51.5%)" stroke-width="1.5"></path><path d="M1145.57 238.29L1145.57 238.29" stroke="hsl(228.5, 77.2%, 51.5%)" stroke-width="1.5"></path><path d="M1145.57 238.29L1138.19 349.45" stroke="hsl(228.5, 77.2%, 51.5%)" stroke-width="1.5"></path><path d="M1145.57 238.29L1264.42 212.13" stroke="hsl(228.5, 77.2%, 51.5%)" stroke-width="1.5"></path><path d="M1449.66 558.15L1449.66 558.15" stroke="hsl(228.5, 77.2%, 51.5%)" stroke-width="1.5"></path><path d="M1449.66 558.15L1454.45 660.42" stroke="hsl(228.5, 77.2%, 51.5%)" stroke-width="1.5"></path><path d="M1449.66 558.15L1578.13 524.35" stroke="hsl(228.5, 77.2%, 51.5%)" stroke-width="1.5"></path><path d="M1449.66 558.15L1423.15 407.36" stroke="hsl(228.5, 77.2%, 51.5%)" stroke-width="1.5"></path><path d="M1543.4 396.26L1543.4 396.26" stroke="hsl(228.5, 77.2%, 51.5%)" stroke-width="1.5"></path><path d="M1543.4 396.26L1423.15 407.36" stroke="hsl(228.5, 77.2%, 51.5%)" stroke-width="1.5"></path><path d="M1543.4 396.26L1578.13 524.35" stroke="hsl(228.5, 77.2%, 51.5%)" stroke-width="1.5"></path><path d="M1543.4 396.26L1545.34 222.69" stroke="hsl(228.5, 77.2%, 51.5%)" stroke-width="1.5"></path><path d="M1543.4 396.26L1449.66 558.15" stroke="hsl(228.5, 77.2%, 51.5%)" stroke-width="1.5"></path><path d="M1543.4 396.26L1307.57 371.57" stroke="hsl(228.5, 77.2%, 51.5%)" stroke-width="1.5"></path><path d="M1543.4 396.26L1404.27 196.2" stroke="hsl(228.5, 77.2%, 51.5%)" stroke-width="1.5"></path><path d="M-96.44 681.95L-96.44 681.95" stroke="hsl(228.5, 77.2%, 51.5%)" stroke-width="1.5"></path><path d="M-96.44 681.95L-59.91 550.03" stroke="hsl(228.5, 77.2%, 51.5%)" stroke-width="1.5"></path><path d="M-96.44 681.95L97.09 677.86" stroke="hsl(228.5, 77.2%, 51.5%)" stroke-width="1.5"></path><path d="M-96.44 681.95L74.09 558.18" stroke="hsl(228.5, 77.2%, 51.5%)" stroke-width="1.5"></path><path d="M-96.44 681.95L209.95 704.95" stroke="hsl(228.5, 77.2%, 51.5%)" stroke-width="1.5"></path><path d="M-96.44 681.95L209.27 497.27" stroke="hsl(228.5, 77.2%, 51.5%)" stroke-width="1.5"></path><path d="M-96.44 681.95L339.97 660.14" stroke="hsl(228.5, 77.2%, 51.5%)" stroke-width="1.5"></path><path d="M74.09 558.18L74.09 558.18" stroke="hsl(228.5, 77.2%, 51.5%)" stroke-width="1.5"></path><path d="M74.09 558.18L97.09 677.86" stroke="hsl(228.5, 77.2%, 51.5%)" stroke-width="1.5"></path><path d="M74.09 558.18L209.27 497.27" stroke="hsl(228.5, 77.2%, 51.5%)" stroke-width="1.5"></path><path d="M74.09 558.18L209.95 704.95" stroke="hsl(228.5, 77.2%, 51.5%)" stroke-width="1.5"></path><path d="M74.09 558.18L339.97 660.14" stroke="hsl(228.5, 77.2%, 51.5%)" stroke-width="1.5"></path><path d="M97.09 677.86L97.09 677.86" stroke="hsl(228.5, 77.2%, 51.5%)" stroke-width="1.5"></path><path d="M97.09 677.86L209.95 704.95" stroke="hsl(228.5, 77.2%, 51.5%)" stroke-width="1.5"></path><path d="M97.09 677.86L-59.91 550.03" stroke="hsl(228.5, 77.2%, 51.5%)" stroke-width="1.5"></path><path d="M97.09 677.86L209.27 497.27" stroke="hsl(228.5, 77.2%, 51.5%)" stroke-width="1.5"></path><path d="M209.27 497.27L209.27 497.27" stroke="hsl(228.5, 77.2%, 51.5%)" stroke-width="1.5"></path><path d="M209.27 497.27L371.5 526.1" stroke="hsl(228.5, 77.2%, 51.5%)" stroke-width="1.5"></path><path d="M209.27 497.27L209.95 704.95" stroke="hsl(228.5, 77.2%, 51.5%)" stroke-width="1.5"></path><path d="M209.27 497.27L339.97 660.14" stroke="hsl(228.5, 77.2%, 51.5%)" stroke-width="1.5"></path><path d="M209.95 704.95L209.95 704.95" stroke="hsl(228.5, 77.2%, 51.5%)" stroke-width="1.5"></path><path d="M209.95 704.95L339.97 660.14" stroke="hsl(228.5, 77.2%, 51.5%)" stroke-width="1.5"></path><path d="M209.95 704.95L371.5 526.1" stroke="hsl(228.5, 77.2%, 51.5%)" stroke-width="1.5"></path><path d="M371.5 526.1L371.5 526.1" stroke="hsl(228.5, 77.2%, 51.5%)" stroke-width="1.5"></path><path d="M371.5 526.1L339.97 660.14" stroke="hsl(228.5, 77.2%, 51.5%)" stroke-width="1.5"></path><path d="M339.97 660.14L339.97 660.14" stroke="hsl(228.5, 77.2%, 51.5%)" stroke-width="1.5"></path><path d="M547.74 689.77L547.74 689.77" stroke="hsl(228.5, 77.2%, 51.5%)" stroke-width="1.5"></path><path d="M547.74 689.77L339.97 660.14" stroke="hsl(228.5, 77.2%, 51.5%)" stroke-width="1.5"></path><path d="M547.74 689.77L696.82 501.26" stroke="hsl(228.5, 77.2%, 51.5%)" stroke-width="1.5"></path><path d="M547.74 689.77L371.5 526.1" stroke="hsl(228.5, 77.2%, 51.5%)" stroke-width="1.5"></path><path d="M640.4 395.15L640.4 395.15" stroke="hsl(228.5, 77.2%, 51.5%)" stroke-width="1.5"></path><path d="M640.4 395.15L696.82 501.26" stroke="hsl(228.5, 77.2%, 51.5%)" stroke-width="1.5"></path><path d="M640.4 395.15L805.25 493.57" stroke="hsl(228.5, 77.2%, 51.5%)" stroke-width="1.5"></path><path d="M640.4 395.15L840.04 378.71" stroke="hsl(228.5, 77.2%, 51.5%)" stroke-width="1.5"></path><path d="M640.4 395.15L684.26 689.88" stroke="hsl(228.5, 77.2%, 51.5%)" stroke-width="1.5"></path><path d="M640.4 395.15L371.5 526.1" stroke="hsl(228.5, 77.2%, 51.5%)" stroke-width="1.5"></path><path d="M696.82 501.26L696.82 501.26" stroke="hsl(228.5, 77.2%, 51.5%)" stroke-width="1.5"></path><path d="M696.82 501.26L840.04 378.71" stroke="hsl(228.5, 77.2%, 51.5%)" stroke-width="1.5"></path><path d="M840.04 378.71L840.04 378.71" stroke="hsl(228.5, 77.2%, 51.5%)" stroke-width="1.5"></path><path d="M840.04 378.71L965.13 398.88" stroke="hsl(228.5, 77.2%, 51.5%)" stroke-width="1.5"></path><path d="M840.04 378.71L946.49 530.56" stroke="hsl(228.5, 77.2%, 51.5%)" stroke-width="1.5"></path><path d="M840.04 378.71L977.54 247.07" stroke="hsl(228.5, 77.2%, 51.5%)" stroke-width="1.5"></path><path d="M823.86 692.61L823.86 692.61" stroke="hsl(228.5, 77.2%, 51.5%)" stroke-width="1.5"></path><path d="M823.86 692.61L684.26 689.88" stroke="hsl(228.5, 77.2%, 51.5%)" stroke-width="1.5"></path><path d="M823.86 692.61L805.25 493.57" stroke="hsl(228.5, 77.2%, 51.5%)" stroke-width="1.5"></path><path d="M823.86 692.61L946.49 530.56" stroke="hsl(228.5, 77.2%, 51.5%)" stroke-width="1.5"></path><path d="M823.86 692.61L696.82 501.26" stroke="hsl(228.5, 77.2%, 51.5%)" stroke-width="1.5"></path><path d="M977.54 247.07L977.54 247.07" stroke="hsl(228.5, 77.2%, 51.5%)" stroke-width="1.5"></path><path d="M977.54 247.07L965.13 398.88" stroke="hsl(228.5, 77.2%, 51.5%)" stroke-width="1.5"></path><path d="M977.54 247.07L1145.57 238.29" stroke="hsl(228.5, 77.2%, 51.5%)" stroke-width="1.5"></path><path d="M965.13 398.88L965.13 398.88" stroke="hsl(228.5, 77.2%, 51.5%)" stroke-width="1.5"></path><path d="M965.13 398.88L946.49 530.56" stroke="hsl(228.5, 77.2%, 51.5%)" stroke-width="1.5"></path><path d="M965.13 398.88L1113.51 489.37" stroke="hsl(228.5, 77.2%, 51.5%)" stroke-width="1.5"></path><path d="M965.13 398.88L1138.19 349.45" stroke="hsl(228.5, 77.2%, 51.5%)" stroke-width="1.5"></path><path d="M946.49 530.56L946.49 530.56" stroke="hsl(228.5, 77.2%, 51.5%)" stroke-width="1.5"></path><path d="M1138.19 349.45L1138.19 349.45" stroke="hsl(228.5, 77.2%, 51.5%)" stroke-width="1.5"></path><path d="M1138.19 349.45L1113.51 489.37" stroke="hsl(228.5, 77.2%, 51.5%)" stroke-width="1.5"></path><path d="M1138.19 349.45L1307.57 371.57" stroke="hsl(228.5, 77.2%, 51.5%)" stroke-width="1.5"></path><path d="M1138.19 349.45L1264.42 212.13" stroke="hsl(228.5, 77.2%, 51.5%)" stroke-width="1.5"></path><path d="M1113.51 489.37L1113.51 489.37" stroke="hsl(228.5, 77.2%, 51.5%)" stroke-width="1.5"></path><path d="M1113.51 489.37L1251.32 560.97" stroke="hsl(228.5, 77.2%, 51.5%)" stroke-width="1.5"></path><path d="M1113.51 489.37L946.49 530.56" stroke="hsl(228.5, 77.2%, 51.5%)" stroke-width="1.5"></path><path d="M1113.51 489.37L1150.48 680.61" stroke="hsl(228.5, 77.2%, 51.5%)" stroke-width="1.5"></path><path d="M1113.51 489.37L1307.57 371.57" stroke="hsl(228.5, 77.2%, 51.5%)" stroke-width="1.5"></path><path d="M1150.48 680.61L1150.48 680.61" stroke="hsl(228.5, 77.2%, 51.5%)" stroke-width="1.5"></path><path d="M1150.48 680.61L1300.18 698.57" stroke="hsl(228.5, 77.2%, 51.5%)" stroke-width="1.5"></path><path d="M1150.48 680.61L1251.32 560.97" stroke="hsl(228.5, 77.2%, 51.5%)" stroke-width="1.5"></path><path d="M1150.48 680.61L951.91 683.06" stroke="hsl(228.5, 77.2%, 51.5%)" stroke-width="1.5"></path><path d="M1150.48 680.61L946.49 530.56" stroke="hsl(228.5, 77.2%, 51.5%)" stroke-width="1.5"></path><path d="M1294.15 -61.23L1294.15 -61.23" stroke="hsl(228.5, 77.2%, 51.5%)" stroke-width="1.5"></path><path d="M1294.15 -61.23L1301.85 57.98" stroke="hsl(228.5, 77.2%, 51.5%)" stroke-width="1.5"></path><path d="M1294.15 -61.23L1453.66 -103.34" stroke="hsl(228.5, 77.2%, 51.5%)" stroke-width="1.5"></path><path d="M1294.15 -61.23L1421.44 56.76" stroke="hsl(228.5, 77.2%, 51.5%)" stroke-width="1.5"></path><path d="M1294.15 -61.23L1264.42 212.13" stroke="hsl(228.5, 77.2%, 51.5%)" stroke-width="1.5"></path><path d="M1294.15 -61.23L1573.01 -58.06" stroke="hsl(228.5, 77.2%, 51.5%)" stroke-width="1.5"></path><path d="M1301.85 57.98L1301.85 57.98" stroke="hsl(228.5, 77.2%, 51.5%)" stroke-width="1.5"></path><path d="M1301.85 57.98L1421.44 56.76" stroke="hsl(228.5, 77.2%, 51.5%)" stroke-width="1.5"></path><path d="M1301.85 57.98L1264.42 212.13" stroke="hsl(228.5, 77.2%, 51.5%)" stroke-width="1.5"></path><path d="M1301.85 57.98L1404.27 196.2" stroke="hsl(228.5, 77.2%, 51.5%)" stroke-width="1.5"></path><path d="M1264.42 212.13L1264.42 212.13" stroke="hsl(228.5, 77.2%, 51.5%)" stroke-width="1.5"></path><path d="M1264.42 212.13L1404.27 196.2" stroke="hsl(228.5, 77.2%, 51.5%)" stroke-width="1.5"></path><path d="M1264.42 212.13L1307.57 371.57" stroke="hsl(228.5, 77.2%, 51.5%)" stroke-width="1.5"></path><path d="M1264.42 212.13L1421.44 56.76" stroke="hsl(228.5, 77.2%, 51.5%)" stroke-width="1.5"></path><path d="M1307.57 371.57L1307.57 371.57" stroke="hsl(228.5, 77.2%, 51.5%)" stroke-width="1.5"></path><path d="M1307.57 371.57L1423.15 407.36" stroke="hsl(228.5, 77.2%, 51.5%)" stroke-width="1.5"></path><path d="M1307.57 371.57L1251.32 560.97" stroke="hsl(228.5, 77.2%, 51.5%)" stroke-width="1.5"></path><path d="M1251.32 560.97L1251.32 560.97" stroke="hsl(228.5, 77.2%, 51.5%)" stroke-width="1.5"></path><path d="M1251.32 560.97L1300.18 698.57" stroke="hsl(228.5, 77.2%, 51.5%)" stroke-width="1.5"></path><path d="M1300.18 698.57L1300.18 698.57" stroke="hsl(228.5, 77.2%, 51.5%)" stroke-width="1.5"></path><path d="M1300.18 698.57L1454.45 660.42" stroke="hsl(228.5, 77.2%, 51.5%)" stroke-width="1.5"></path><path d="M1300.18 698.57L1449.66 558.15" stroke="hsl(228.5, 77.2%, 51.5%)" stroke-width="1.5"></path><path d="M1300.18 698.57L1113.51 489.37" stroke="hsl(228.5, 77.2%, 51.5%)" stroke-width="1.5"></path><path d="M1300.18 698.57L1611.28 709.33" stroke="hsl(228.5, 77.2%, 51.5%)" stroke-width="1.5"></path><path d="M1453.66 -103.34L1453.66 -103.34" stroke="hsl(228.5, 77.2%, 51.5%)" stroke-width="1.5"></path><path d="M1453.66 -103.34L1573.01 -58.06" stroke="hsl(228.5, 77.2%, 51.5%)" stroke-width="1.5"></path><path d="M1453.66 -103.34L1421.44 56.76" stroke="hsl(228.5, 77.2%, 51.5%)" stroke-width="1.5"></path><path d="M1453.66 -103.34L1301.85 57.98" stroke="hsl(228.5, 77.2%, 51.5%)" stroke-width="1.5"></path><path d="M1453.66 -103.34L1610.48 64.02" stroke="hsl(228.5, 77.2%, 51.5%)" stroke-width="1.5"></path><path d="M1421.44 56.76L1421.44 56.76" stroke="hsl(228.5, 77.2%, 51.5%)" stroke-width="1.5"></path><path d="M1404.27 196.2L1404.27 196.2" stroke="hsl(228.5, 77.2%, 51.5%)" stroke-width="1.5"></path><path d="M1404.27 196.2L1421.44 56.76" stroke="hsl(228.5, 77.2%, 51.5%)" stroke-width="1.5"></path><path d="M1404.27 196.2L1545.34 222.69" stroke="hsl(228.5, 77.2%, 51.5%)" stroke-width="1.5"></path><path d="M1404.27 196.2L1307.57 371.57" stroke="hsl(228.5, 77.2%, 51.5%)" stroke-width="1.5"></path><path d="M1423.15 407.36L1423.15 407.36" stroke="hsl(228.5, 77.2%, 51.5%)" stroke-width="1.5"></path><path d="M1454.45 660.42L1454.45 660.42" stroke="hsl(228.5, 77.2%, 51.5%)" stroke-width="1.5"></path><path d="M1454.45 660.42L1611.28 709.33" stroke="hsl(228.5, 77.2%, 51.5%)" stroke-width="1.5"></path><path d="M1573.01 -58.06L1573.01 -58.06" stroke="hsl(228.5, 77.2%, 51.5%)" stroke-width="1.5"></path><path d="M1573.01 -58.06L1610.48 64.02" stroke="hsl(228.5, 77.2%, 51.5%)" stroke-width="1.5"></path><path d="M1573.01 -58.06L1421.44 56.76" stroke="hsl(228.5, 77.2%, 51.5%)" stroke-width="1.5"></path><path d="M1610.48 64.02L1610.48 64.02" stroke="hsl(228.5, 77.2%, 51.5%)" stroke-width="1.5"></path><path d="M1610.48 64.02L1545.34 222.69" stroke="hsl(228.5, 77.2%, 51.5%)" stroke-width="1.5"></path><path d="M1610.48 64.02L1421.44 56.76" stroke="hsl(228.5, 77.2%, 51.5%)" stroke-width="1.5"></path><path d="M1610.48 64.02L1404.27 196.2" stroke="hsl(228.5, 77.2%, 51.5%)" stroke-width="1.5"></path><path d="M1610.48 64.02L1301.85 57.98" stroke="hsl(228.5, 77.2%, 51.5%)" stroke-width="1.5"></path><path d="M1545.34 222.69L1545.34 222.69" stroke="hsl(228.5, 77.2%, 51.5%)" stroke-width="1.5"></path><path d="M1545.34 222.69L1421.44 56.76" stroke="hsl(228.5, 77.2%, 51.5%)" stroke-width="1.5"></path><path d="M1578.13 524.35L1578.13 524.35" stroke="hsl(228.5, 77.2%, 51.5%)" stroke-width="1.5"></path><path d="M1578.13 524.35L1454.45 660.42" stroke="hsl(228.5, 77.2%, 51.5%)" stroke-width="1.5"></path><path d="M1578.13 524.35L1611.28 709.33" stroke="hsl(228.5, 77.2%, 51.5%)" stroke-width="1.5"></path><path d="M1611.28 709.33L1611.28 709.33" stroke="hsl(228.5, 77.2%, 51.5%)" stroke-width="1.5"></path><path d="M1611.28 709.33L1449.66 558.15" stroke="hsl(228.5, 77.2%, 51.5%)" stroke-width="1.5"></path><circle r="25" cx="-59.91" cy="550.03" fill="url(&quot;#SvgjsRadialGradient1003&quot;)"></circle><circle r="25" cx="536.17" cy="519.99" fill="url(&quot;#SvgjsRadialGradient1003&quot;)"></circle><circle r="25" cx="684.26" cy="689.88" fill="url(&quot;#SvgjsRadialGradient1003&quot;)"></circle><circle r="25" cx="805.25" cy="493.57" fill="url(&quot;#SvgjsRadialGradient1003&quot;)"></circle><circle r="25" cx="951.91" cy="683.06" fill="url(&quot;#SvgjsRadialGradient1003&quot;)"></circle><circle r="25" cx="1145.57" cy="238.29" fill="url(&quot;#SvgjsRadialGradient1003&quot;)"></circle><circle r="25" cx="1449.66" cy="558.15" fill="url(&quot;#SvgjsRadialGradient1003&quot;)"></circle><circle r="25" cx="1543.4" cy="396.26" fill="url(&quot;#SvgjsRadialGradient1003&quot;)"></circle><circle r="5" cx="-96.44" cy="681.95" fill="#8b9ad9"></circle><circle r="5" cx="74.09" cy="558.18" fill="#8b9ad9"></circle><circle r="5" cx="97.09" cy="677.86" fill="#8b9ad9"></circle><circle r="5" cx="209.27" cy="497.27" fill="#8b9ad9"></circle><circle r="5" cx="209.95" cy="704.95" fill="#8b9ad9"></circle><circle r="5" cx="371.5" cy="526.1" fill="#8b9ad9"></circle><circle r="5" cx="339.97" cy="660.14" fill="#8b9ad9"></circle><circle r="5" cx="547.74" cy="689.77" fill="#8b9ad9"></circle><circle r="5" cx="640.4" cy="395.15" fill="#8b9ad9"></circle><circle r="5" cx="696.82" cy="501.26" fill="#8b9ad9"></circle><circle r="5" cx="840.04" cy="378.71" fill="#8b9ad9"></circle><circle r="5" cx="823.86" cy="692.61" fill="#8b9ad9"></circle><circle r="5" cx="977.54" cy="247.07" fill="#8b9ad9"></circle><circle r="5" cx="965.13" cy="398.88" fill="#8b9ad9"></circle><circle r="5" cx="946.49" cy="530.56" fill="#8b9ad9"></circle><circle r="5" cx="1138.19" cy="349.45" fill="#8b9ad9"></circle><circle r="5" cx="1113.51" cy="489.37" fill="#8b9ad9"></circle><circle r="5" cx="1150.48" cy="680.61" fill="#8b9ad9"></circle><circle r="5" cx="1294.15" cy="-61.23" fill="#8b9ad9"></circle><circle r="5" cx="1301.85" cy="57.98" fill="#8b9ad9"></circle><circle r="5" cx="1264.42" cy="212.13" fill="#8b9ad9"></circle><circle r="5" cx="1307.57" cy="371.57" fill="#8b9ad9"></circle><circle r="5" cx="1251.32" cy="560.97" fill="#8b9ad9"></circle><circle r="5" cx="1300.18" cy="698.57" fill="#8b9ad9"></circle><circle r="5" cx="1453.66" cy="-103.34" fill="#8b9ad9"></circle><circle r="5" cx="1421.44" cy="56.76" fill="#8b9ad9"></circle><circle r="5" cx="1404.27" cy="196.2" fill="#8b9ad9"></circle><circle r="5" cx="1423.15" cy="407.36" fill="#8b9ad9"></circle><circle r="5" cx="1454.45" cy="660.42" fill="#8b9ad9"></circle><circle r="5" cx="1573.01" cy="-58.06" fill="#8b9ad9"></circle><circle r="5" cx="1610.48" cy="64.02" fill="#8b9ad9"></circle><circle r="5" cx="1545.34" cy="222.69" fill="#8b9ad9"></circle><circle r="5" cx="1578.13" cy="524.35" fill="#8b9ad9"></circle><circle r="5" cx="1611.28" cy="709.33" fill="#8b9ad9"></circle></g><defs><mask id="SvgjsMask1002"><rect width="1440" height="560" fill="#ffffff"></rect></mask><radialGradient id="SvgjsRadialGradient1003"><stop stop-color="#ffffff" offset="0.1"></stop><stop stop-color="#1735b3" offset="0.2"></stop><stop stop-color="rgba(23, 53, 179, 0)" offset="1"></stop></radialGradient></defs></svg>