<svg xmlns="http://www.w3.org/2000/svg" version="1.1" xmlns:xlink="http://www.w3.org/1999/xlink" xmlns:svgjs="http://svgjs.dev/svgjs" width="1920" height="1080" preserveAspectRatio="none" viewBox="0 0 1920 1080"><g mask="url(&quot;#SvgjsMask1953&quot;)" fill="none"><rect width="1920" height="1080" x="0" y="0" fill="#0e2a47"></rect><g transform="translate(0, 0)" stroke-linecap="round" stroke="url(&quot;#SvgjsLinearGradient1954&quot;)"><path d="M600 462.43 L600 617.58" stroke-width="15"></path><path d="M620 410.71 L620 669.29" stroke-width="15"></path><path d="M640 350.73 L640 729.27" stroke-width="15"></path><path d="M660 428.58 L660 651.42" stroke-width="15"></path><path d="M680 404.57 L680 675.43" stroke-width="15"></path><path d="M700 473.25 L700 606.75" stroke-width="15"></path><path d="M720 466.45 L720 613.55" stroke-width="15"></path><path d="M740 463.06 L740 616.94" stroke-width="15"></path><path d="M760 421.97 L760 658.03" stroke-width="15"></path><path d="M780 367.81 L780 712.19" stroke-width="15"></path><path d="M800 516.63 L800 563.38" stroke-width="15"></path><path d="M820 432.99 L820 647.01" stroke-width="15"></path><path d="M840 370.73 L840 709.27" stroke-width="15"></path><path d="M860 484.9 L860 595.1" stroke-width="15"></path><path d="M880 449.19 L880 630.81" stroke-width="15"></path><path d="M900 363.78 L900 716.22" stroke-width="15"></path><path d="M920 415.73 L920 664.27" stroke-width="15"></path><path d="M940 418.89 L940 661.11" stroke-width="15"></path><path d="M960 454.05 L960 625.95" stroke-width="15"></path><path d="M980 474.86 L980 605.14" stroke-width="15"></path><path d="M1000 405.26 L1000 674.74" stroke-width="15"></path><path d="M1020 429.68 L1020 650.33" stroke-width="15"></path><path d="M1040 390.62 L1040 689.38" stroke-width="15"></path><path d="M1060 498.07 L1060 581.93" stroke-width="15"></path><path d="M1080 443.18 L1080 636.83" stroke-width="15"></path><path d="M1100 346.59 L1100 733.41" stroke-width="15"></path><path d="M1120 419.26 L1120 660.74" stroke-width="15"></path><path d="M1140 475.64 L1140 604.36" stroke-width="15"></path><path d="M1160 377.04 L1160 702.96" stroke-width="15"></path><path d="M1180 487.64 L1180 592.36" stroke-width="15"></path><path d="M1200 381.31 L1200 698.68" stroke-width="15"></path><path d="M1220 470.83 L1220 609.16" stroke-width="15"></path><path d="M1240 354.51 L1240 725.49" stroke-width="15"></path><path d="M1260 475.2 L1260 604.79" stroke-width="15"></path><path d="M1280 399.89 L1280 680.11" stroke-width="15"></path><path d="M1300 517.83 L1300 562.17" stroke-width="15"></path><path d="M1320 489.95 L1320 590.04" stroke-width="15"></path></g></g><defs><mask id="SvgjsMask1953"><rect width="1920" height="1080" fill="#ffffff"></rect></mask><linearGradient x1="960" y1="329.4" x2="960" y2="750.5999999999999" gradientUnits="userSpaceOnUse" id="SvgjsLinearGradient1954"><stop stop-color="#3a7cc3" offset="0"></stop><stop stop-color="rgba(72, 143, 219, 0.51)" offset="1"></stop></linearGradient></defs></svg>