<svg xmlns="http://www.w3.org/2000/svg" version="1.1" xmlns:xlink="http://www.w3.org/1999/xlink" xmlns:svgjs="http://svgjs.dev/svgjs" width="1440" height="560" preserveAspectRatio="none" viewBox="0 0 1440 560"><g mask="url(&quot;#SvgjsMask1000&quot;)" fill="none"><rect width="1440" height="560" x="0" y="0" fill="#0e2a47"></rect><path d="M653.64 265.03L653.64 268.76L678.81 268.76L678.81 265.03zM672.21 266.89 a6.6 6.6 0 1 0 13.2 0 a6.6 6.6 0 1 0 -13.2 0zM648.94 292.41L647.51 295.85L655.72 299.25L657.14 295.8zM649.83 297.53 a6.6 6.6 0 1 0 13.2 0 a6.6 6.6 0 1 0 -13.2 0zM634.12 315.9L631.48 318.53L649.15 336.21L651.79 333.57zM643.87 334.89 a6.6 6.6 0 1 0 13.2 0 a6.6 6.6 0 1 0 -13.2 0zM611.43 331.93L607.99 333.36L618.74 359.31L622.18 357.88zM613.86 358.6 a6.6 6.6 0 1 0 13.2 0 a6.6 6.6 0 1 0 -13.2 0zM584.34 338.06L580.61 338.06L580.61 356.37L584.34 356.37zM575.88 356.37 a6.6 6.6 0 1 0 13.2 0 a6.6 6.6 0 1 0 -13.2 0zM556.96 333.36L553.52 331.93L544.92 352.69L548.36 354.12zM540.04 353.4 a6.6 6.6 0 1 0 13.2 0 a6.6 6.6 0 1 0 -13.2 0zM533.47 318.53L530.83 315.9L513.16 333.57L515.8 336.21zM507.88 334.89 a6.6 6.6 0 1 0 13.2 0 a6.6 6.6 0 1 0 -13.2 0zM517.44 295.85L516.01 292.41L501.15 298.56L502.58 302zM495.27 300.28 a6.6 6.6 0 1 0 13.2 0 a6.6 6.6 0 1 0 -13.2 0zM511.31 268.76L511.31 265.03L492.3 265.03L492.3 268.76zM485.7 266.89 a6.6 6.6 0 1 0 13.2 0 a6.6 6.6 0 1 0 -13.2 0zM516.01 241.38L517.44 237.94L494 228.23L492.57 231.67zM486.68 229.95 a6.6 6.6 0 1 0 13.2 0 a6.6 6.6 0 1 0 -13.2 0zM530.83 217.89L533.47 215.25L522.67 204.45L520.04 207.09zM514.75 205.77 a6.6 6.6 0 1 0 13.2 0 a6.6 6.6 0 1 0 -13.2 0zM553.52 201.85L556.96 200.43L546.17 174.37L542.73 175.8zM537.85 175.09 a6.6 6.6 0 1 0 13.2 0 a6.6 6.6 0 1 0 -13.2 0zM580.61 195.72L584.34 195.72L584.34 180.97L580.61 180.97zM575.88 180.97 a6.6 6.6 0 1 0 13.2 0 a6.6 6.6 0 1 0 -13.2 0zM607.99 200.43L611.43 201.85L620.39 180.23L616.95 178.8zM612.07 179.51 a6.6 6.6 0 1 0 13.2 0 a6.6 6.6 0 1 0 -13.2 0zM631.48 215.25L634.12 217.89L650.33 201.67L647.7 199.04zM642.41 200.35 a6.6 6.6 0 1 0 13.2 0 a6.6 6.6 0 1 0 -13.2 0zM647.51 237.94L648.94 241.38L665.34 234.59L663.91 231.14zM658.03 232.86 a6.6 6.6 0 1 0 13.2 0 a6.6 6.6 0 1 0 -13.2 0zM511.29 266.89 a71.19 71.19 0 1 0 142.38 0 a71.19 71.19 0 1 0 -142.38 0z" fill="#488fdb"></path><path d="M541.73 208.51 A70.1936 70.1936 0 0 1 653.39 260.65M653.39 260.65 A142.3872 142.3872 0 0 0 541.73 208.51" fill="#2672c3" fill-rule="nonzero"></path><path d="M569.2 254.33 a14.24 14.24 0 1 0 28.48 0 a14.24 14.24 0 1 0 -28.48 0zM529.66 260.2 a12.81 12.81 0 1 0 25.62 0 a12.81 12.81 0 1 0 -25.62 0zM554.22 208.43 a9.26 9.26 0 1 0 18.52 0 a9.26 9.26 0 1 0 -18.52 0zM600.04 224.28 a14.24 14.24 0 1 0 28.48 0 a14.24 14.24 0 1 0 -28.48 0zM566.43 314.33 a14.24 14.24 0 1 0 28.48 0 a14.24 14.24 0 1 0 -28.48 0zM527.35 225.72 a7.83 7.83 0 1 0 15.66 0 a7.83 7.83 0 1 0 -15.66 0zM607.19 300.66 a12.1 12.1 0 1 0 24.2 0 a12.1 12.1 0 1 0 -24.2 0zM640.28 281.64 a5.7 5.7 0 1 0 11.4 0 a5.7 5.7 0 1 0 -11.4 0zM517.28 292.82 a4.98 4.98 0 1 0 9.96 0 a4.98 4.98 0 1 0 -9.96 0zM546.21 323 a3.56 3.56 0 1 0 7.12 0 a3.56 3.56 0 1 0 -7.12 0z" fill="#2672c3" fill-rule="nonzero"></path><path d="M1133.23 185.81L1133.23 189.53L1146.18 189.53L1146.18 185.81zM1139.58 187.67 a6.6 6.6 0 1 0 13.2 0 a6.6 6.6 0 1 0 -13.2 0zM1128.53 213.18L1127.1 216.63L1139.57 221.79L1140.99 218.35zM1133.68 220.07 a6.6 6.6 0 1 0 13.2 0 a6.6 6.6 0 1 0 -13.2 0zM1113.71 236.68L1111.07 239.31L1118.09 246.33L1120.73 243.7zM1112.81 245.02 a6.6 6.6 0 1 0 13.2 0 a6.6 6.6 0 1 0 -13.2 0zM1091.02 252.71L1087.58 254.14L1092.54 266.12L1095.98 264.69zM1087.66 265.4 a6.6 6.6 0 1 0 13.2 0 a6.6 6.6 0 1 0 -13.2 0zM1063.93 258.84L1060.2 258.84L1060.2 268.94L1063.93 268.94zM1055.46 268.94 a6.6 6.6 0 1 0 13.2 0 a6.6 6.6 0 1 0 -13.2 0zM1036.55 254.14L1033.11 252.71L1020.87 282.25L1024.32 283.67zM1015.99 282.96 a6.6 6.6 0 1 0 13.2 0 a6.6 6.6 0 1 0 -13.2 0zM1013.06 239.31L1010.42 236.68L1001.94 245.16L1004.58 247.79zM996.66 246.47 a6.6 6.6 0 1 0 13.2 0 a6.6 6.6 0 1 0 -13.2 0zM997.03 216.63L995.6 213.18L964.08 226.24L965.5 229.68zM958.19 227.96 a6.6 6.6 0 1 0 13.2 0 a6.6 6.6 0 1 0 -13.2 0zM990.9 189.53L990.9 185.81L957.97 185.81L957.97 189.53zM951.37 187.67 a6.6 6.6 0 1 0 13.2 0 a6.6 6.6 0 1 0 -13.2 0zM995.6 162.16L997.03 158.71L971.52 148.15L970.09 151.59zM964.2 149.87 a6.6 6.6 0 1 0 13.2 0 a6.6 6.6 0 1 0 -13.2 0zM1010.42 138.66L1013.06 136.03L988.98 111.95L986.35 114.59zM981.06 113.27 a6.6 6.6 0 1 0 13.2 0 a6.6 6.6 0 1 0 -13.2 0zM1033.11 122.63L1036.55 121.21L1030.36 106.25L1026.91 107.67zM1022.03 106.96 a6.6 6.6 0 1 0 13.2 0 a6.6 6.6 0 1 0 -13.2 0zM1060.2 116.5L1063.93 116.5L1063.93 90.13L1060.2 90.13zM1055.46 90.13 a6.6 6.6 0 1 0 13.2 0 a6.6 6.6 0 1 0 -13.2 0zM1087.58 121.21L1091.02 122.63L1098 105.79L1094.55 104.36zM1089.68 105.08 a6.6 6.6 0 1 0 13.2 0 a6.6 6.6 0 1 0 -13.2 0zM1111.07 136.03L1113.71 138.66L1122.58 129.79L1119.95 127.15zM1114.66 128.47 a6.6 6.6 0 1 0 13.2 0 a6.6 6.6 0 1 0 -13.2 0zM1127.1 158.71L1128.53 162.16L1150.26 153.16L1148.83 149.71zM1142.95 151.43 a6.6 6.6 0 1 0 13.2 0 a6.6 6.6 0 1 0 -13.2 0zM990.87 187.67 a71.19 71.19 0 1 0 142.38 0 a71.19 71.19 0 1 0 -142.38 0z" fill="#488fdb"></path><path d="M1110.94 239.43 A70.1936 70.1936 0 0 1 992.83 204.27M992.83 204.27 A142.3872 142.3872 0 0 0 1110.94 239.43" fill="#2672c3" fill-rule="nonzero"></path><path d="M1043.25 136.95 a14.24 14.24 0 1 0 28.48 0 a14.24 14.24 0 1 0 -28.48 0zM1067.37 225.73 a14.24 14.24 0 1 0 28.48 0 a14.24 14.24 0 1 0 -28.48 0zM1026.57 232.77 a13.53 13.53 0 1 0 27.06 0 a13.53 13.53 0 1 0 -27.06 0zM1100.52 200.17 a7.83 7.83 0 1 0 15.66 0 a7.83 7.83 0 1 0 -15.66 0zM993.31 202.83 a7.83 7.83 0 1 0 15.66 0 a7.83 7.83 0 1 0 -15.66 0zM1008.42 143.14 a5.7 5.7 0 1 0 11.4 0 a5.7 5.7 0 1 0 -11.4 0zM1081.12 184.07 a4.98 4.98 0 1 0 9.96 0 a4.98 4.98 0 1 0 -9.96 0zM1048.31 203.26 a3.56 3.56 0 1 0 7.12 0 a3.56 3.56 0 1 0 -7.12 0zM1025.7 197.57 a4.27 4.27 0 1 0 8.54 0 a4.27 4.27 0 1 0 -8.54 0zM1086.81 148.18 a14.24 14.24 0 1 0 28.48 0 a14.24 14.24 0 1 0 -28.48 0z" fill="#2672c3" fill-rule="nonzero"></path><path d="M418.43 455.22L418.43 458.48L441.84 458.48L441.84 455.22zM436.06 456.85 a5.78 5.78 0 1 0 11.56 0 a5.78 5.78 0 1 0 -11.56 0zM414.32 479.18L413.07 482.19L426.77 487.86L428.02 484.85zM421.62 486.36 a5.78 5.78 0 1 0 11.56 0 a5.78 5.78 0 1 0 -11.56 0zM401.35 499.73L399.04 502.04L410.89 513.88L413.19 511.58zM406.26 512.73 a5.78 5.78 0 1 0 11.56 0 a5.78 5.78 0 1 0 -11.56 0zM381.5 513.76L378.49 515.01L383.27 526.55L386.28 525.3zM378.99 525.92 a5.78 5.78 0 1 0 11.56 0 a5.78 5.78 0 1 0 -11.56 0zM357.79 519.12L354.53 519.12L354.53 529.59L357.79 529.59zM350.38 529.59 a5.78 5.78 0 1 0 11.56 0 a5.78 5.78 0 1 0 -11.56 0zM333.84 515.01L330.82 513.76L320.87 537.8L323.88 539.05zM316.59 538.42 a5.78 5.78 0 1 0 11.56 0 a5.78 5.78 0 1 0 -11.56 0zM313.28 502.04L310.97 499.73L294.36 516.34L296.67 518.65zM289.74 517.5 a5.78 5.78 0 1 0 11.56 0 a5.78 5.78 0 1 0 -11.56 0zM299.25 482.19L298 479.18L273.75 489.22L275 492.23zM268.6 490.73 a5.78 5.78 0 1 0 11.56 0 a5.78 5.78 0 1 0 -11.56 0zM293.89 458.48L293.89 455.22L272.95 455.22L272.95 458.48zM267.17 456.85 a5.78 5.78 0 1 0 11.56 0 a5.78 5.78 0 1 0 -11.56 0zM298 434.53L299.25 431.51L275.38 421.63L274.13 424.64zM268.98 423.13 a5.78 5.78 0 1 0 11.56 0 a5.78 5.78 0 1 0 -11.56 0zM310.97 413.97L313.28 411.67L299.29 397.68L296.99 399.98zM292.36 398.83 a5.78 5.78 0 1 0 11.56 0 a5.78 5.78 0 1 0 -11.56 0zM330.82 399.94L333.84 398.69L328.23 385.15L325.21 386.4zM320.94 385.77 a5.78 5.78 0 1 0 11.56 0 a5.78 5.78 0 1 0 -11.56 0zM354.53 394.58L357.79 394.58L357.79 380.05L354.53 380.05zM350.38 380.05 a5.78 5.78 0 1 0 11.56 0 a5.78 5.78 0 1 0 -11.56 0zM378.49 398.69L381.5 399.94L387.52 385.4L384.51 384.15zM380.24 384.78 a5.78 5.78 0 1 0 11.56 0 a5.78 5.78 0 1 0 -11.56 0zM399.04 411.67L401.35 413.97L421.73 393.59L419.42 391.29zM414.79 392.44 a5.78 5.78 0 1 0 11.56 0 a5.78 5.78 0 1 0 -11.56 0zM413.07 431.51L414.32 434.53L440.72 423.59L439.47 420.58zM434.32 422.08 a5.78 5.78 0 1 0 11.56 0 a5.78 5.78 0 1 0 -11.56 0zM293.87 456.85 a62.29 62.29 0 1 0 124.58 0 a62.29 62.29 0 1 0 -124.58 0z" fill="#488fdb"></path><path d="M310.36 414.63 A61.294399999999996 61.294399999999996 0 0 1 415.59 438.17M415.59 438.17 A124.58879999999999 124.58879999999999 0 0 0 310.36 414.63" fill="#2672c3" fill-rule="nonzero"></path><path d="M352.68 492.22 a12.46 12.46 0 1 0 24.92 0 a12.46 12.46 0 1 0 -24.92 0zM295.57 443.75 a8.1 8.1 0 1 0 16.2 0 a8.1 8.1 0 1 0 -16.2 0zM339.66 459.36 a10.59 10.59 0 1 0 21.18 0 a10.59 10.59 0 1 0 -21.18 0zM333.66 423.43 a12.46 12.46 0 1 0 24.92 0 a12.46 12.46 0 1 0 -24.92 0zM368.84 406 a7.48 7.48 0 1 0 14.96 0 a7.48 7.48 0 1 0 -14.96 0zM367.6 439.66 a9.97 9.97 0 1 0 19.94 0 a9.97 9.97 0 1 0 -19.94 0zM319.53 483.89 a9.34 9.34 0 1 0 18.68 0 a9.34 9.34 0 1 0 -18.68 0zM400.23 448.85 a8.72 8.72 0 1 0 17.44 0 a8.72 8.72 0 1 0 -17.44 0zM392.44 498.04 a4.36 4.36 0 1 0 8.72 0 a4.36 4.36 0 1 0 -8.72 0zM322.4 455.57 a2.49 2.49 0 1 0 4.98 0 a2.49 2.49 0 1 0 -4.98 0z" fill="#2672c3" fill-rule="nonzero"></path><path d="M342.88 103.12L342.88 106.38L360.21 106.38L360.21 103.12zM354.43 104.75 a5.78 5.78 0 1 0 11.56 0 a5.78 5.78 0 1 0 -11.56 0zM338.76 127.08L337.52 130.09L361.35 139.96L362.6 136.95zM356.2 138.45 a5.78 5.78 0 1 0 11.56 0 a5.78 5.78 0 1 0 -11.56 0zM325.79 147.63L323.49 149.94L332.21 158.66L334.51 156.35zM327.58 157.5 a5.78 5.78 0 1 0 11.56 0 a5.78 5.78 0 1 0 -11.56 0zM305.95 161.66L302.93 162.91L312.65 186.37L315.67 185.13zM308.38 185.75 a5.78 5.78 0 1 0 11.56 0 a5.78 5.78 0 1 0 -11.56 0zM282.24 167.02L278.98 167.02L278.98 196.52L282.24 196.52zM274.83 196.52 a5.78 5.78 0 1 0 11.56 0 a5.78 5.78 0 1 0 -11.56 0zM258.28 162.91L255.27 161.66L251.15 171.61L254.16 172.86zM246.88 172.23 a5.78 5.78 0 1 0 11.56 0 a5.78 5.78 0 1 0 -11.56 0zM237.73 149.94L235.42 147.63L228.88 154.17L231.19 156.48zM224.25 155.33 a5.78 5.78 0 1 0 11.56 0 a5.78 5.78 0 1 0 -11.56 0zM223.7 130.09L222.45 127.08L200.6 136.13L201.85 139.14zM195.45 137.63 a5.78 5.78 0 1 0 11.56 0 a5.78 5.78 0 1 0 -11.56 0zM218.33 106.38L218.33 103.12L190.9 103.12L190.9 106.38zM185.12 104.75 a5.78 5.78 0 1 0 11.56 0 a5.78 5.78 0 1 0 -11.56 0zM222.45 82.43L223.7 79.41L196.92 68.32L195.68 71.34zM190.52 69.83 a5.78 5.78 0 1 0 11.56 0 a5.78 5.78 0 1 0 -11.56 0zM235.42 61.87L237.73 59.56L220.81 42.64L218.5 44.95zM213.87 43.8 a5.78 5.78 0 1 0 11.56 0 a5.78 5.78 0 1 0 -11.56 0zM255.27 47.84L258.28 46.59L255.2 39.14L252.18 40.39zM247.91 39.76 a5.78 5.78 0 1 0 11.56 0 a5.78 5.78 0 1 0 -11.56 0zM278.98 42.48L282.24 42.48L282.24 33.23L278.98 33.23zM274.83 33.23 a5.78 5.78 0 1 0 11.56 0 a5.78 5.78 0 1 0 -11.56 0zM302.93 46.59L305.95 47.84L309.32 39.68L306.31 38.44zM302.04 39.06 a5.78 5.78 0 1 0 11.56 0 a5.78 5.78 0 1 0 -11.56 0zM323.49 59.56L325.79 61.87L333.07 54.59L330.76 52.29zM326.14 53.44 a5.78 5.78 0 1 0 11.56 0 a5.78 5.78 0 1 0 -11.56 0zM337.52 79.41L338.76 82.43L351.1 77.32L349.85 74.3zM344.69 75.81 a5.78 5.78 0 1 0 11.56 0 a5.78 5.78 0 1 0 -11.56 0zM218.32 104.75 a62.29 62.29 0 1 0 124.58 0 a62.29 62.29 0 1 0 -124.58 0z" fill="#488fdb"></path><path d="M264.29 44.63 A61.294399999999996 61.294399999999996 0 0 1 340.87 120.55M340.87 120.55 A124.58879999999999 124.58879999999999 0 0 0 264.29 44.63" fill="#2672c3" fill-rule="nonzero"></path><path d="M238.76 148.17 a5.61 5.61 0 1 0 11.22 0 a5.61 5.61 0 1 0 -11.22 0zM251.41 91.03 a12.46 12.46 0 1 0 24.92 0 a12.46 12.46 0 1 0 -24.92 0zM252.54 129.75 a3.74 3.74 0 1 0 7.48 0 a3.74 3.74 0 1 0 -7.48 0zM308.15 92.5 a12.46 12.46 0 1 0 24.92 0 a12.46 12.46 0 1 0 -24.92 0zM234.08 114.89 a5.61 5.61 0 1 0 11.22 0 a5.61 5.61 0 1 0 -11.22 0zM287.59 81.62 a2.49 2.49 0 1 0 4.98 0 a2.49 2.49 0 1 0 -4.98 0zM328.71 124.78 a4.98 4.98 0 1 0 9.96 0 a4.98 4.98 0 1 0 -9.96 0zM305.29 128.83 a5.61 5.61 0 1 0 11.22 0 a5.61 5.61 0 1 0 -11.22 0zM272.42 148.1 a12.46 12.46 0 1 0 24.92 0 a12.46 12.46 0 1 0 -24.92 0zM255.58 62.39 a3.74 3.74 0 1 0 7.48 0 a3.74 3.74 0 1 0 -7.48 0z" fill="#2672c3" fill-rule="nonzero"></path><path d="M790.62 495.44L790.62 497.3L799.86 497.3L799.86 495.44zM796.56 496.37 a3.3 3.3 0 1 0 6.6 0 a3.3 3.3 0 1 0 -6.6 0zM788.27 509.13L787.56 510.85L800.38 516.16L801.09 514.44zM797.44 515.3 a3.3 3.3 0 1 0 6.6 0 a3.3 3.3 0 1 0 -6.6 0zM780.86 520.87L779.54 522.19L786 528.65L787.32 527.34zM783.36 527.99 a3.3 3.3 0 1 0 6.6 0 a3.3 3.3 0 1 0 -6.6 0zM769.52 528.89L767.79 529.6L769.8 534.44L771.52 533.73zM767.36 534.09 a3.3 3.3 0 1 0 6.6 0 a3.3 3.3 0 1 0 -6.6 0zM755.97 531.95L754.1 531.95L754.1 540.17L755.97 540.17zM751.74 540.17 a3.3 3.3 0 1 0 6.6 0 a3.3 3.3 0 1 0 -6.6 0zM742.28 529.6L740.56 528.89L737.96 535.17L739.68 535.88zM735.52 535.53 a3.3 3.3 0 1 0 6.6 0 a3.3 3.3 0 1 0 -6.6 0zM730.53 522.19L729.22 520.87L719.41 530.67L720.73 531.99zM716.77 531.33 a3.3 3.3 0 1 0 6.6 0 a3.3 3.3 0 1 0 -6.6 0zM722.52 510.85L721.8 509.13L706.41 515.5L707.13 517.22zM703.47 516.36 a3.3 3.3 0 1 0 6.6 0 a3.3 3.3 0 1 0 -6.6 0zM719.45 497.3L719.45 495.44L702.12 495.44L702.12 497.3zM698.82 496.37 a3.3 3.3 0 1 0 6.6 0 a3.3 3.3 0 1 0 -6.6 0zM721.8 483.61L722.52 481.89L711.02 477.13L710.31 478.85zM707.37 477.99 a3.3 3.3 0 1 0 6.6 0 a3.3 3.3 0 1 0 -6.6 0zM729.22 471.87L730.53 470.55L720.43 460.44L719.11 461.76zM716.47 461.1 a3.3 3.3 0 1 0 6.6 0 a3.3 3.3 0 1 0 -6.6 0zM740.56 463.85L742.28 463.14L736.47 449.12L734.75 449.83zM732.31 449.48 a3.3 3.3 0 1 0 6.6 0 a3.3 3.3 0 1 0 -6.6 0zM754.1 460.78L755.97 460.78L755.97 453.65L754.1 453.65zM751.74 453.65 a3.3 3.3 0 1 0 6.6 0 a3.3 3.3 0 1 0 -6.6 0zM767.79 463.14L769.52 463.85L773.43 454.41L771.7 453.69zM769.27 454.05 a3.3 3.3 0 1 0 6.6 0 a3.3 3.3 0 1 0 -6.6 0zM779.54 470.55L780.86 471.87L791.56 461.16L790.25 459.84zM787.6 460.5 a3.3 3.3 0 1 0 6.6 0 a3.3 3.3 0 1 0 -6.6 0zM787.56 481.89L788.27 483.61L799.27 479.05L798.56 477.33zM795.62 478.19 a3.3 3.3 0 1 0 6.6 0 a3.3 3.3 0 1 0 -6.6 0zM719.44 496.37 a35.6 35.6 0 1 0 71.2 0 a35.6 35.6 0 1 0 -71.2 0z" fill="#488fdb"></path><path d="M749.62 461.19 A34.5968 34.5968 0 0 1 788.24 509.2M788.24 509.2 A71.1936 71.1936 0 0 0 749.62 461.19" fill="#2672c3" fill-rule="nonzero"></path><path d="M739.19 486.51 a7.12 7.12 0 1 0 14.24 0 a7.12 7.12 0 1 0 -14.24 0zM767.89 518.86 a6.05 6.05 0 1 0 12.1 0 a6.05 6.05 0 1 0 -12.1 0zM750.67 517.75 a4.98 4.98 0 1 0 9.96 0 a4.98 4.98 0 1 0 -9.96 0zM784.75 493.13 a2.85 2.85 0 1 0 5.7 0 a2.85 2.85 0 1 0 -5.7 0zM779.43 504.26 a2.49 2.49 0 1 0 4.98 0 a2.49 2.49 0 1 0 -4.98 0zM764.31 466.3 a2.85 2.85 0 1 0 5.7 0 a2.85 2.85 0 1 0 -5.7 0zM758.98 494.96 a6.76 6.76 0 1 0 13.52 0 a6.76 6.76 0 1 0 -13.52 0zM722.11 508.29 a4.98 4.98 0 1 0 9.96 0 a4.98 4.98 0 1 0 -9.96 0zM725.21 489.99 a3.56 3.56 0 1 0 7.12 0 a3.56 3.56 0 1 0 -7.12 0zM740.01 466.98 a3.92 3.92 0 1 0 7.84 0 a3.92 3.92 0 1 0 -7.84 0z" fill="#2672c3" fill-rule="nonzero"></path><path d="M150.13 452.77L150.13 455.1L160.28 455.1L160.28 452.77zM156.15 453.93 a4.13 4.13 0 1 0 8.26 0 a4.13 4.13 0 1 0 -8.26 0zM147.19 469.88L146.29 472.03L164.14 479.42L165.03 477.27zM160.45 478.35 a4.13 4.13 0 1 0 8.26 0 a4.13 4.13 0 1 0 -8.26 0zM137.92 484.56L136.27 486.21L145.87 495.81L147.52 494.16zM142.56 494.98 a4.13 4.13 0 1 0 8.26 0 a4.13 4.13 0 1 0 -8.26 0zM123.74 494.58L121.59 495.48L123.92 501.09L126.07 500.2zM120.86 500.65 a4.13 4.13 0 1 0 8.26 0 a4.13 4.13 0 1 0 -8.26 0zM106.81 498.42L104.48 498.42L104.48 509.81L106.81 509.81zM101.52 509.81 a4.13 4.13 0 1 0 8.26 0 a4.13 4.13 0 1 0 -8.26 0zM89.7 495.48L87.55 494.58L81.2 509.9L83.35 510.79zM78.15 510.35 a4.13 4.13 0 1 0 8.26 0 a4.13 4.13 0 1 0 -8.26 0zM75.02 486.21L73.37 484.56L59.73 498.2L61.38 499.85zM56.42 499.03 a4.13 4.13 0 1 0 8.26 0 a4.13 4.13 0 1 0 -8.26 0zM65 472.03L64.11 469.88L54.66 473.79L55.55 475.94zM50.98 474.87 a4.13 4.13 0 1 0 8.26 0 a4.13 4.13 0 1 0 -8.26 0zM61.17 455.1L61.17 452.77L52.06 452.77L52.06 455.1zM47.93 453.93 a4.13 4.13 0 1 0 8.26 0 a4.13 4.13 0 1 0 -8.26 0zM64.11 437.99L65 435.84L55.44 431.88L54.55 434.03zM50.87 432.96 a4.13 4.13 0 1 0 8.26 0 a4.13 4.13 0 1 0 -8.26 0zM73.37 423.31L75.02 421.66L64.08 410.73L62.44 412.37zM59.13 411.55 a4.13 4.13 0 1 0 8.26 0 a4.13 4.13 0 1 0 -8.26 0zM87.55 413.29L89.7 412.39L84.86 400.72L82.71 401.61zM79.66 401.16 a4.13 4.13 0 1 0 8.26 0 a4.13 4.13 0 1 0 -8.26 0zM104.48 409.45L106.81 409.45L106.81 401.64L104.48 401.64zM101.52 401.64 a4.13 4.13 0 1 0 8.26 0 a4.13 4.13 0 1 0 -8.26 0zM121.59 412.39L123.74 413.29L129.01 400.57L126.86 399.68zM123.8 400.13 a4.13 4.13 0 1 0 8.26 0 a4.13 4.13 0 1 0 -8.26 0zM136.27 421.66L137.92 423.31L143.99 417.24L142.34 415.59zM139.04 416.42 a4.13 4.13 0 1 0 8.26 0 a4.13 4.13 0 1 0 -8.26 0zM146.29 435.84L147.19 437.99L160.22 432.59L159.33 430.44zM155.65 431.51 a4.13 4.13 0 1 0 8.26 0 a4.13 4.13 0 1 0 -8.26 0zM61.15 453.93 a44.5 44.5 0 1 0 89 0 a44.5 44.5 0 1 0 -89 0z" fill="#488fdb"></path><path d="M65.31 472.71 A43.496 43.496 0 0 1 109.46 409.6M109.46 409.6 A88.992 88.992 0 0 0 65.31 472.71" fill="#2672c3" fill-rule="nonzero"></path><path d="M118.67 476.25 a8.9 8.9 0 1 0 17.8 0 a8.9 8.9 0 1 0 -17.8 0zM67.14 447.84 a8.9 8.9 0 1 0 17.8 0 a8.9 8.9 0 1 0 -17.8 0zM91.53 413.07 a1.78 1.78 0 1 0 3.56 0 a1.78 1.78 0 1 0 -3.56 0zM99.56 463.49 a6.67 6.67 0 1 0 13.34 0 a6.67 6.67 0 1 0 -13.34 0zM77.57 476.72 a8.45 8.45 0 1 0 16.9 0 a8.45 8.45 0 1 0 -16.9 0zM138.11 428.42 a1.78 1.78 0 1 0 3.56 0 a1.78 1.78 0 1 0 -3.56 0zM103.92 414.77 a4.89 4.89 0 1 0 9.78 0 a4.89 4.89 0 1 0 -9.78 0zM104.76 435.78 a7.12 7.12 0 1 0 14.24 0 a7.12 7.12 0 1 0 -14.24 0zM126.59 443.99 a5.34 5.34 0 1 0 10.68 0 a5.34 5.34 0 1 0 -10.68 0zM97.45 491.14 a1.78 1.78 0 1 0 3.56 0 a1.78 1.78 0 1 0 -3.56 0z" fill="#2672c3" fill-rule="nonzero"></path><path d="M1402.97 378.78L1402.97 381.58L1419.02 381.58L1419.02 378.78zM1414.07 380.18 a4.95 4.95 0 1 0 9.9 0 a4.95 4.95 0 1 0 -9.9 0zM1399.44 399.31L1398.37 401.9L1409.36 406.45L1410.43 403.87zM1404.95 405.16 a4.95 4.95 0 1 0 9.9 0 a4.95 4.95 0 1 0 -9.9 0zM1388.32 416.93L1386.34 418.91L1396.27 428.84L1398.25 426.86zM1392.31 427.85 a4.95 4.95 0 1 0 9.9 0 a4.95 4.95 0 1 0 -9.9 0zM1371.31 428.96L1368.73 430.03L1373.74 442.14L1376.32 441.07zM1370.08 441.6 a4.95 4.95 0 1 0 9.9 0 a4.95 4.95 0 1 0 -9.9 0zM1350.99 433.56L1348.19 433.56L1348.19 444.7L1350.99 444.7zM1344.64 444.7 a4.95 4.95 0 1 0 9.9 0 a4.95 4.95 0 1 0 -9.9 0zM1330.45 430.03L1327.87 428.96L1319.3 449.66L1321.88 450.73zM1315.64 450.2 a4.95 4.95 0 1 0 9.9 0 a4.95 4.95 0 1 0 -9.9 0zM1312.84 418.91L1310.86 416.93L1301.79 426L1303.77 427.98zM1297.83 426.99 a4.95 4.95 0 1 0 9.9 0 a4.95 4.95 0 1 0 -9.9 0zM1300.81 401.9L1299.74 399.31L1284.65 405.57L1285.71 408.15zM1280.23 406.86 a4.95 4.95 0 1 0 9.9 0 a4.95 4.95 0 1 0 -9.9 0zM1296.21 381.58L1296.21 378.78L1271.07 378.78L1271.07 381.58zM1266.12 380.18 a4.95 4.95 0 1 0 9.9 0 a4.95 4.95 0 1 0 -9.9 0zM1299.74 361.04L1300.81 358.46L1284.15 351.56L1283.08 354.14zM1278.67 352.85 a4.95 4.95 0 1 0 9.9 0 a4.95 4.95 0 1 0 -9.9 0zM1310.86 343.42L1312.84 341.45L1299.28 327.89L1297.3 329.87zM1293.34 328.88 a4.95 4.95 0 1 0 9.9 0 a4.95 4.95 0 1 0 -9.9 0zM1327.87 331.4L1330.45 330.33L1321.73 309.27L1319.15 310.34zM1315.49 309.81 a4.95 4.95 0 1 0 9.9 0 a4.95 4.95 0 1 0 -9.9 0zM1348.19 326.8L1350.99 326.8L1350.99 319.55L1348.19 319.55zM1344.64 319.55 a4.95 4.95 0 1 0 9.9 0 a4.95 4.95 0 1 0 -9.9 0zM1368.73 330.33L1371.31 331.4L1379.83 310.82L1377.25 309.75zM1373.59 310.28 a4.95 4.95 0 1 0 9.9 0 a4.95 4.95 0 1 0 -9.9 0zM1386.34 341.45L1388.32 343.42L1405.41 326.34L1403.43 324.36zM1399.47 325.35 a4.95 4.95 0 1 0 9.9 0 a4.95 4.95 0 1 0 -9.9 0zM1398.37 358.46L1399.44 361.04L1412.7 355.55L1411.63 352.97zM1407.21 354.26 a4.95 4.95 0 1 0 9.9 0 a4.95 4.95 0 1 0 -9.9 0zM1296.19 380.18 a53.4 53.4 0 1 0 106.8 0 a53.4 53.4 0 1 0 -106.8 0z" fill="#488fdb"></path><path d="M1319.49 336.08 A52.3952 52.3952 0 0 1 1402.82 376.05M1402.82 376.05 A106.7904 106.7904 0 0 0 1319.49 336.08" fill="#2672c3" fill-rule="nonzero"></path><path d="M1378.79 367.22 a10.68 10.68 0 1 0 21.36 0 a10.68 10.68 0 1 0 -21.36 0zM1298.42 392.97 a9.08 9.08 0 1 0 18.16 0 a9.08 9.08 0 1 0 -18.16 0zM1326.59 401.09 a8.01 8.01 0 1 0 16.02 0 a8.01 8.01 0 1 0 -16.02 0zM1346.21 382.04 a9.61 9.61 0 1 0 19.22 0 a9.61 9.61 0 1 0 -19.22 0zM1310.55 365.98 a10.15 10.15 0 1 0 20.3 0 a10.15 10.15 0 1 0 -20.3 0zM1345.32 354.34 a7.48 7.48 0 1 0 14.96 0 a7.48 7.48 0 1 0 -14.96 0zM1384.54 412.09 a3.2 3.2 0 1 0 6.4 0 a3.2 3.2 0 1 0 -6.4 0zM1364.96 402.8 a3.74 3.74 0 1 0 7.48 0 a3.74 3.74 0 1 0 -7.48 0zM1367.98 420.94 a3.74 3.74 0 1 0 7.48 0 a3.74 3.74 0 1 0 -7.48 0zM1322.66 422.8 a4.27 4.27 0 1 0 8.54 0 a4.27 4.27 0 1 0 -8.54 0z" fill="#2672c3" fill-rule="nonzero"></path><path d="M1360.95 74.42L1360.95 76.75L1377.55 76.75L1377.55 74.42zM1373.42 75.59 a4.13 4.13 0 1 0 8.26 0 a4.13 4.13 0 1 0 -8.26 0zM1358.01 91.53L1357.12 93.69L1376.27 101.62L1377.16 99.47zM1372.59 100.54 a4.13 4.13 0 1 0 8.26 0 a4.13 4.13 0 1 0 -8.26 0zM1348.75 106.22L1347.1 107.86L1351.28 112.04L1352.92 110.4zM1347.97 111.22 a4.13 4.13 0 1 0 8.26 0 a4.13 4.13 0 1 0 -8.26 0zM1334.57 116.24L1332.41 117.13L1338.32 131.39L1340.48 130.5zM1335.27 130.95 a4.13 4.13 0 1 0 8.26 0 a4.13 4.13 0 1 0 -8.26 0zM1317.63 120.07L1315.3 120.07L1315.3 140.7L1317.63 140.7zM1312.34 140.7 a4.13 4.13 0 1 0 8.26 0 a4.13 4.13 0 1 0 -8.26 0zM1300.52 117.13L1298.37 116.24L1294.87 124.68L1297.03 125.57zM1291.82 125.13 a4.13 4.13 0 1 0 8.26 0 a4.13 4.13 0 1 0 -8.26 0zM1285.84 107.86L1284.19 106.22L1273.28 117.13L1274.93 118.77zM1269.98 117.95 a4.13 4.13 0 1 0 8.26 0 a4.13 4.13 0 1 0 -8.26 0zM1275.82 93.69L1274.93 91.53L1260.45 97.53L1261.34 99.68zM1256.77 98.61 a4.13 4.13 0 1 0 8.26 0 a4.13 4.13 0 1 0 -8.26 0zM1271.99 76.75L1271.99 74.42L1254.68 74.42L1254.68 76.75zM1250.55 75.59 a4.13 4.13 0 1 0 8.26 0 a4.13 4.13 0 1 0 -8.26 0zM1274.93 59.64L1275.82 57.49L1264.34 52.73L1263.44 54.88zM1259.76 53.81 a4.13 4.13 0 1 0 8.26 0 a4.13 4.13 0 1 0 -8.26 0zM1284.19 44.96L1285.84 43.31L1280.68 38.15L1279.03 39.8zM1275.72 38.97 a4.13 4.13 0 1 0 8.26 0 a4.13 4.13 0 1 0 -8.26 0zM1298.37 34.94L1300.52 34.05L1295.74 22.49L1293.58 23.38zM1290.53 22.93 a4.13 4.13 0 1 0 8.26 0 a4.13 4.13 0 1 0 -8.26 0zM1315.3 31.11L1317.63 31.11L1317.63 19.87L1315.3 19.87zM1312.34 19.87 a4.13 4.13 0 1 0 8.26 0 a4.13 4.13 0 1 0 -8.26 0zM1332.41 34.05L1334.57 34.94L1340.39 20.88L1338.24 19.99zM1335.19 20.43 a4.13 4.13 0 1 0 8.26 0 a4.13 4.13 0 1 0 -8.26 0zM1347.1 43.31L1348.75 44.96L1363.18 30.53L1361.53 28.88zM1358.22 29.7 a4.13 4.13 0 1 0 8.26 0 a4.13 4.13 0 1 0 -8.26 0zM1357.12 57.49L1358.01 59.64L1374.04 53L1373.15 50.85zM1369.46 51.93 a4.13 4.13 0 1 0 8.26 0 a4.13 4.13 0 1 0 -8.26 0zM1271.97 75.59 a44.5 44.5 0 1 0 89 0 a44.5 44.5 0 1 0 -89 0z" fill="#488fdb"></path><path d="M1333.55 116.68 A43.496 43.496 0 0 1 1272.33 69.93M1272.33 69.93 A88.992 88.992 0 0 0 1333.55 116.68" fill="#2672c3" fill-rule="nonzero"></path><path d="M1310.03 47.6 a8.9 8.9 0 1 0 17.8 0 a8.9 8.9 0 1 0 -17.8 0zM1326.06 115.45 a2.67 2.67 0 1 0 5.34 0 a2.67 2.67 0 1 0 -5.34 0zM1341.69 70.17 a8.9 8.9 0 1 0 17.8 0 a8.9 8.9 0 1 0 -17.8 0zM1307.29 110.16 a5.34 5.34 0 1 0 10.68 0 a5.34 5.34 0 1 0 -10.68 0zM1279.74 98.32 a5.34 5.34 0 1 0 10.68 0 a5.34 5.34 0 1 0 -10.68 0zM1296.82 64.78 a5.78 5.78 0 1 0 11.56 0 a5.78 5.78 0 1 0 -11.56 0zM1310.47 90.89 a4.89 4.89 0 1 0 9.78 0 a4.89 4.89 0 1 0 -9.78 0zM1328.37 85.06 a2.67 2.67 0 1 0 5.34 0 a2.67 2.67 0 1 0 -5.34 0zM1280.14 71.34 a4.45 4.45 0 1 0 8.9 0 a4.45 4.45 0 1 0 -8.9 0zM1295.18 81.13 a2.22 2.22 0 1 0 4.44 0 a2.22 2.22 0 1 0 -4.44 0z" fill="#2672c3" fill-rule="nonzero"></path><path d="M1039.99 471.13L1039.99 473.93L1060.16 473.93L1060.16 471.13zM1055.21 472.53 a4.95 4.95 0 1 0 9.9 0 a4.95 4.95 0 1 0 -9.9 0zM1036.47 491.66L1035.4 494.25L1055.67 502.64L1056.74 500.06zM1051.25 501.35 a4.95 4.95 0 1 0 9.9 0 a4.95 4.95 0 1 0 -9.9 0zM1025.35 509.28L1023.37 511.26L1034.19 522.08L1036.17 520.1zM1030.23 521.09 a4.95 4.95 0 1 0 9.9 0 a4.95 4.95 0 1 0 -9.9 0zM1008.34 521.31L1005.75 522.38L1014.08 542.48L1016.66 541.41zM1010.42 541.95 a4.95 4.95 0 1 0 9.9 0 a4.95 4.95 0 1 0 -9.9 0zM988.02 525.9L985.22 525.9L985.22 535.95L988.02 535.95zM981.67 535.95 a4.95 4.95 0 1 0 9.9 0 a4.95 4.95 0 1 0 -9.9 0zM967.48 522.38L964.9 521.31L958.85 535.92L961.43 536.99zM955.19 536.46 a4.95 4.95 0 1 0 9.9 0 a4.95 4.95 0 1 0 -9.9 0zM949.86 511.26L947.89 509.28L939.77 517.4L941.75 519.38zM935.81 518.39 a4.95 4.95 0 1 0 9.9 0 a4.95 4.95 0 1 0 -9.9 0zM937.84 494.25L936.77 491.66L916.08 500.23L917.15 502.81zM911.67 501.52 a4.95 4.95 0 1 0 9.9 0 a4.95 4.95 0 1 0 -9.9 0zM933.24 473.93L933.24 471.13L918.37 471.13L918.37 473.93zM913.42 472.53 a4.95 4.95 0 1 0 9.9 0 a4.95 4.95 0 1 0 -9.9 0zM936.77 453.39L937.84 450.81L920.88 443.78L919.81 446.37zM915.39 445.08 a4.95 4.95 0 1 0 9.9 0 a4.95 4.95 0 1 0 -9.9 0zM947.89 435.77L949.86 433.8L935.26 419.19L933.28 421.17zM929.32 420.18 a4.95 4.95 0 1 0 9.9 0 a4.95 4.95 0 1 0 -9.9 0zM964.9 423.75L967.48 422.68L962.22 409.98L959.64 411.05zM955.98 410.51 a4.95 4.95 0 1 0 9.9 0 a4.95 4.95 0 1 0 -9.9 0zM985.22 419.15L988.02 419.15L988.02 399.22L985.22 399.22zM981.67 399.22 a4.95 4.95 0 1 0 9.9 0 a4.95 4.95 0 1 0 -9.9 0zM1005.75 422.68L1008.34 423.75L1012.32 414.12L1009.74 413.05zM1006.08 413.59 a4.95 4.95 0 1 0 9.9 0 a4.95 4.95 0 1 0 -9.9 0zM1023.37 433.8L1025.35 435.77L1033.22 427.9L1031.24 425.93zM1027.28 426.91 a4.95 4.95 0 1 0 9.9 0 a4.95 4.95 0 1 0 -9.9 0zM1035.4 450.81L1036.47 453.39L1054.07 446.1L1053 443.52zM1048.58 444.81 a4.95 4.95 0 1 0 9.9 0 a4.95 4.95 0 1 0 -9.9 0zM933.22 472.53 a53.4 53.4 0 1 0 106.8 0 a53.4 53.4 0 1 0 -106.8 0z" fill="#488fdb"></path><path d="M1015.12 427.37 A52.3952 52.3952 0 0 1 1011.57 519.73M1011.57 519.73 A106.7904 106.7904 0 0 0 1015.12 427.37" fill="#2672c3" fill-rule="nonzero"></path><path d="M957.04 493.27 a10.68 10.68 0 1 0 21.36 0 a10.68 10.68 0 1 0 -21.36 0zM1004.13 476.85 a10.68 10.68 0 1 0 21.36 0 a10.68 10.68 0 1 0 -21.36 0zM1013.1 447.3 a9.08 9.08 0 1 0 18.16 0 a9.08 9.08 0 1 0 -18.16 0zM933.49 469.85 a9.61 9.61 0 1 0 19.22 0 a9.61 9.61 0 1 0 -19.22 0zM977.01 521.74 a3.74 3.74 0 1 0 7.48 0 a3.74 3.74 0 1 0 -7.48 0zM989.02 497.99 a2.14 2.14 0 1 0 4.28 0 a2.14 2.14 0 1 0 -4.28 0zM978.51 445.6 a10.68 10.68 0 1 0 21.36 0 a10.68 10.68 0 1 0 -21.36 0zM944.01 442.19 a4.81 4.81 0 1 0 9.62 0 a4.81 4.81 0 1 0 -9.62 0zM962.55 427.81 a4.27 4.27 0 1 0 8.54 0 a4.27 4.27 0 1 0 -8.54 0zM985.63 477.21 a3.74 3.74 0 1 0 7.48 0 a3.74 3.74 0 1 0 -7.48 0z" fill="#2672c3" fill-rule="nonzero"></path></g><defs><mask id="SvgjsMask1000"><rect width="1440" height="560" fill="#ffffff"></rect></mask></defs></svg>